<?xml version="1.0" encoding="UTF-8"?>
<svg xmlns="http://www.w3.org/2000/svg" width="16px" height="16px"
     viewBox="0 0 16 16" version="1.1">
    <defs>
        <clipPath id="clip1">
            <path d="M 4.90625 4.910156 L 11.089844 4.910156 L 11.089844 11.089844 L 4.90625 11.089844 Z M 4.90625 4.910156 "/>
        </clipPath>
    </defs>
    <g id="surface1">
        <g clip-path="url(#clip1)" clip-rule="nonzero">
            <path style=" stroke:none;fill-rule:nonzero;fill:rgb(0%,50.196078%,100%);fill-opacity:1;"
                  d="M 8.351562 9.476562 L 6.519531 9.476562 L 6.519531 6.523438 C 6.519531 6.523438 7.132812 6.523438 8.351562 6.523438 C 8.648438 6.523438 8.902344 6.667969 9.117188 6.957031 C 9.328125 7.246094 9.433594 7.59375 9.433594 8 C 9.433594 8.410156 9.328125 8.757812 9.117188 9.042969 C 8.902344 9.332031 8.648438 9.476562 8.351562 9.476562 Z M 6.789062 6.789062 L 6.789062 9.210938 L 8.351562 9.210938 C 8.574219 9.210938 8.765625 9.089844 8.921875 8.855469 C 9.082031 8.617188 9.160156 8.335938 9.160156 8 C 9.160156 7.664062 9.082031 7.378906 8.921875 7.144531 C 8.765625 6.90625 8.574219 6.789062 8.351562 6.789062 Z M 6.253906 6.253906 L 6.253906 9.746094 L 8.351562 9.746094 C 8.722656 9.746094 9.042969 9.574219 9.3125 9.234375 C 9.578125 8.890625 9.710938 8.480469 9.710938 8 C 9.710938 7.683594 9.648438 7.390625 9.527344 7.125 C 9.402344 6.855469 9.238281 6.640625 9.03125 6.488281 C 8.824219 6.332031 8.597656 6.253906 8.351562 6.253906 Z M 8.351562 10.015625 L 5.984375 10.015625 L 5.984375 5.984375 L 8.351562 5.984375 C 8.644531 5.984375 8.914062 6.074219 9.167969 6.253906 C 9.417969 6.433594 9.617188 6.675781 9.765625 6.988281 C 9.914062 7.296875 9.988281 7.636719 9.988281 8 C 9.988281 8.363281 9.914062 8.699219 9.765625 9.011719 C 9.617188 9.320312 9.417969 9.566406 9.167969 9.746094 C 8.914062 9.925781 8.644531 10.015625 8.351562 10.015625 Z M 5.714844 5.714844 L 5.714844 10.285156 L 8.351562 10.285156 C 8.695312 10.285156 9.011719 10.183594 9.304688 9.976562 C 9.59375 9.773438 9.828125 9.496094 10.003906 9.144531 C 10.175781 8.796875 10.261719 8.414062 10.261719 8 C 10.261719 7.589844 10.175781 7.207031 10.003906 6.855469 C 9.828125 6.503906 9.59375 6.226562 9.300781 6.023438 C 9.007812 5.816406 8.691406 5.714844 8.351562 5.714844 Z M 8.351562 10.550781 L 5.445312 10.550781 L 5.445312 5.449219 L 8.351562 5.449219 C 8.742188 5.449219 9.101562 5.5625 9.4375 5.789062 C 9.777344 6.015625 10.042969 6.328125 10.242188 6.71875 C 10.441406 7.113281 10.539062 7.539062 10.539062 8 C 10.539062 8.460938 10.441406 8.886719 10.242188 9.28125 C 10.042969 9.671875 9.777344 9.984375 9.4375 10.210938 C 9.101562 10.4375 8.742188 10.550781 8.351562 10.550781 Z M 5.175781 5.179688 L 5.175781 10.820312 L 8.351562 10.820312 C 8.679688 10.820312 8.992188 10.746094 9.296875 10.597656 C 9.601562 10.449219 9.863281 10.246094 10.085938 9.996094 C 10.304688 9.746094 10.484375 9.445312 10.617188 9.09375 C 10.75 8.746094 10.816406 8.382812 10.816406 8 C 10.816406 7.621094 10.75 7.253906 10.617188 6.90625 C 10.484375 6.558594 10.304688 6.257812 10.085938 6.007812 C 9.863281 5.753906 9.601562 5.550781 9.296875 5.402344 C 8.992188 5.253906 8.679688 5.179688 8.351562 5.179688 Z M 8.351562 11.089844 L 4.910156 11.089844 L 4.910156 4.910156 L 8.351562 4.910156 C 8.839844 4.910156 9.292969 5.046875 9.710938 5.324219 C 10.132812 5.601562 10.46875 5.976562 10.71875 6.449219 C 10.964844 6.925781 11.089844 7.441406 11.089844 8 C 11.089844 8.417969 11.019531 8.816406 10.871094 9.199219 C 10.722656 9.582031 10.523438 9.910156 10.277344 10.1875 C 10.03125 10.460938 9.742188 10.683594 9.402344 10.84375 C 9.066406 11.007812 8.714844 11.089844 8.351562 11.089844 Z M 8.351562 11.089844 "/>
        </g>
        <path style="fill-rule:nonzero;fill:rgb(0%,50.196078%,100%);fill-opacity:1;stroke-width:1;stroke-linecap:butt;stroke-linejoin:miter;stroke:rgb(100%,100%,100%);stroke-opacity:1;stroke-miterlimit:4;"
              d="M 91.9275 41.232187 L 91.9275 0 L 339.1275 0 L 339.1275 247.2 L 91.9275 247.2 L 91.9275 205.967812 L 105.639375 205.967812 L 105.639375 233.391562 L 325.319062 233.391562 L 325.319062 13.808437 L 105.639375 13.808437 L 105.639375 41.232187 Z M 91.9275 41.232187 "
              transform="matrix(0.0404531,0,0,0.0404531,0,3)"/>
    </g>
</svg>
